<mxfile host="app.diagrams.net" modified="2022-09-05T16:24:30.773Z" agent="5.0 (Windows NT 10.0; Win64; x64) AppleWebKit/537.36 (KHTML, like Gecko) Chrome/105.0.0.0 Safari/537.36 Edg/105.0.1343.27" etag="L2-DPzScRljJ2jaiZI1N" version="20.2.8" type="github">
  <diagram id="nNRB3FYroDZcuy6VNHdO" name="Página-1">
    <mxGraphModel dx="368" dy="421" grid="1" gridSize="10" guides="1" tooltips="1" connect="1" arrows="1" fold="1" page="1" pageScale="1" pageWidth="827" pageHeight="1169" math="0" shadow="0">
      <root>
        <mxCell id="0" />
        <mxCell id="1" parent="0" />
        <mxCell id="z5m_l2Ay39GD2w98-U8z-1" value="Entrenador abstracta " style="swimlane;childLayout=stackLayout;horizontal=1;startSize=30;horizontalStack=0;rounded=1;fontSize=14;fontStyle=0;strokeWidth=2;resizeParent=0;resizeLast=1;shadow=0;dashed=0;align=center;" vertex="1" parent="1">
          <mxGeometry x="10" y="10" width="160" height="220" as="geometry" />
        </mxCell>
        <mxCell id="z5m_l2Ay39GD2w98-U8z-4" value="Atributos:&#xa;    nombre:str&#xa;    energia: int&#xa;    programones:list&#xa;    objetos : list&#xa;&#xa;---------------------------------&#xa;Metodos:&#xa;    entrenamiento():&#xa;    crear_objeto():&#xa;    estado_entrenador():" style="text;strokeColor=none;fillColor=none;spacingLeft=4;spacingRight=4;overflow=hidden;rotatable=0;points=[[0,0.5],[1,0.5]];portConstraint=eastwest;fontSize=12;" vertex="1" parent="z5m_l2Ay39GD2w98-U8z-1">
          <mxGeometry y="30" width="160" height="190" as="geometry" />
        </mxCell>
        <mxCell id="z5m_l2Ay39GD2w98-U8z-9" value="" style="edgeStyle=orthogonalEdgeStyle;rounded=0;orthogonalLoop=1;jettySize=auto;html=1;" edge="1" parent="1" source="z5m_l2Ay39GD2w98-U8z-5" target="z5m_l2Ay39GD2w98-U8z-7">
          <mxGeometry relative="1" as="geometry" />
        </mxCell>
        <mxCell id="z5m_l2Ay39GD2w98-U8z-16" value="" style="edgeStyle=orthogonalEdgeStyle;rounded=0;orthogonalLoop=1;jettySize=auto;html=1;" edge="1" parent="1" source="z5m_l2Ay39GD2w98-U8z-5" target="z5m_l2Ay39GD2w98-U8z-14">
          <mxGeometry relative="1" as="geometry" />
        </mxCell>
        <mxCell id="z5m_l2Ay39GD2w98-U8z-5" value="Objetos abstracta" style="swimlane;childLayout=stackLayout;horizontal=1;startSize=30;horizontalStack=0;rounded=1;fontSize=14;fontStyle=0;strokeWidth=2;resizeParent=0;resizeLast=1;shadow=0;dashed=0;align=center;" vertex="1" parent="1">
          <mxGeometry x="1155" y="70" width="170" height="220" as="geometry" />
        </mxCell>
        <mxCell id="z5m_l2Ay39GD2w98-U8z-6" value="Atributos:&#xa;    nombre:str&#xa;    tipo: str&#xa;    privado__costo: int&#xa;    probabilidad_de_exito : float&#xa;&#xa;---------------------------------&#xa;Metodos:&#xa;     Aplicar_objeto()" style="align=left;strokeColor=none;fillColor=none;spacingLeft=4;fontSize=12;verticalAlign=top;resizable=0;rotatable=0;part=1;" vertex="1" parent="z5m_l2Ay39GD2w98-U8z-5">
          <mxGeometry y="30" width="170" height="190" as="geometry" />
        </mxCell>
        <mxCell id="z5m_l2Ay39GD2w98-U8z-7" value="Objetos_bayas (herencia)" style="swimlane;childLayout=stackLayout;horizontal=1;startSize=30;horizontalStack=0;rounded=1;fontSize=14;fontStyle=0;strokeWidth=2;resizeParent=0;resizeLast=1;shadow=0;dashed=0;align=center;" vertex="1" parent="1">
          <mxGeometry x="890" y="360" width="180" height="220" as="geometry" />
        </mxCell>
        <mxCell id="z5m_l2Ay39GD2w98-U8z-8" value="Atributos:&#xa;    nombre:str&#xa;    tipo: str&#xa;    privado__costo: int&#xa;    probabilidad_de_exito : float&#xa;&#xa;---------------------------------&#xa;Metodos:&#xa;     Aplicar_objeto() polimorfismo" style="align=left;strokeColor=none;fillColor=none;spacingLeft=4;fontSize=12;verticalAlign=top;resizable=0;rotatable=0;part=1;" vertex="1" parent="z5m_l2Ay39GD2w98-U8z-7">
          <mxGeometry y="30" width="180" height="190" as="geometry" />
        </mxCell>
        <mxCell id="z5m_l2Ay39GD2w98-U8z-14" value="Objetos_Poción" style="swimlane;childLayout=stackLayout;horizontal=1;startSize=30;horizontalStack=0;rounded=1;fontSize=14;fontStyle=0;strokeWidth=2;resizeParent=0;resizeLast=1;shadow=0;dashed=0;align=center;" vertex="1" parent="1">
          <mxGeometry x="1410" y="360" width="200" height="220" as="geometry" />
        </mxCell>
        <mxCell id="z5m_l2Ay39GD2w98-U8z-15" value="Atributos:&#xa;    nombre:str&#xa;    tipo: str&#xa;    privado__costo: int&#xa;    probabilidad_de_exito : float&#xa;&#xa;---------------------------------&#xa;Metodos:&#xa;     Aplicar_objeto() Polimorfismos" style="align=left;strokeColor=none;fillColor=none;spacingLeft=4;fontSize=12;verticalAlign=top;resizable=0;rotatable=0;part=1;" vertex="1" parent="z5m_l2Ay39GD2w98-U8z-14">
          <mxGeometry y="30" width="200" height="190" as="geometry" />
        </mxCell>
        <mxCell id="z5m_l2Ay39GD2w98-U8z-34" value="Caramelo(Multiherencia)" style="swimlane;childLayout=stackLayout;horizontal=1;startSize=30;horizontalStack=0;rounded=1;fontSize=14;fontStyle=0;strokeWidth=2;resizeParent=0;resizeLast=1;shadow=0;dashed=0;align=center;" vertex="1" parent="1">
          <mxGeometry x="1135" y="670" width="210" height="200" as="geometry" />
        </mxCell>
        <mxCell id="z5m_l2Ay39GD2w98-U8z-35" value="Atributos:&#xa;    nombre:str&#xa;    tipo: str&#xa;    privado__costo: int&#xa;    probabilidad_de_exito : float&#xa;&#xa;---------------------------------&#xa;Metodos:&#xa;     Aplicar_objeto() Polimorfismos" style="align=left;strokeColor=none;fillColor=none;spacingLeft=4;fontSize=12;verticalAlign=top;resizable=0;rotatable=0;part=1;" vertex="1" parent="z5m_l2Ay39GD2w98-U8z-34">
          <mxGeometry y="30" width="210" height="170" as="geometry" />
        </mxCell>
        <mxCell id="z5m_l2Ay39GD2w98-U8z-36" value="|" style="edgeStyle=orthogonalEdgeStyle;rounded=0;orthogonalLoop=1;jettySize=auto;html=1;entryX=1;entryY=0.5;entryDx=0;entryDy=0;" edge="1" parent="1" source="z5m_l2Ay39GD2w98-U8z-15" target="z5m_l2Ay39GD2w98-U8z-34">
          <mxGeometry relative="1" as="geometry">
            <Array as="points">
              <mxPoint x="1378" y="485" />
              <mxPoint x="1378" y="770" />
            </Array>
          </mxGeometry>
        </mxCell>
        <mxCell id="z5m_l2Ay39GD2w98-U8z-37" style="edgeStyle=orthogonalEdgeStyle;rounded=0;orthogonalLoop=1;jettySize=auto;html=1;entryX=0;entryY=0.5;entryDx=0;entryDy=0;" edge="1" parent="1" source="z5m_l2Ay39GD2w98-U8z-8" target="z5m_l2Ay39GD2w98-U8z-34">
          <mxGeometry relative="1" as="geometry" />
        </mxCell>
        <mxCell id="z5m_l2Ay39GD2w98-U8z-39" value="2" style="text;html=1;align=center;verticalAlign=middle;resizable=0;points=[];autosize=1;strokeColor=none;fillColor=none;" vertex="1" parent="1">
          <mxGeometry x="1345" y="745" width="30" height="30" as="geometry" />
        </mxCell>
        <mxCell id="z5m_l2Ay39GD2w98-U8z-40" value="&lt;span style=&quot;color: rgb(0, 0, 0); font-family: Helvetica; font-size: 12px; font-style: normal; font-variant-ligatures: normal; font-variant-caps: normal; font-weight: 400; letter-spacing: normal; orphans: 2; text-align: center; text-indent: 0px; text-transform: none; widows: 2; word-spacing: 0px; -webkit-text-stroke-width: 0px; background-color: rgb(248, 249, 250); text-decoration-thickness: initial; text-decoration-style: initial; text-decoration-color: initial; float: none; display: inline !important;&quot;&gt;2&lt;/span&gt;" style="text;whiteSpace=wrap;html=1;" vertex="1" parent="1">
          <mxGeometry x="1110" y="750" width="40" height="40" as="geometry" />
        </mxCell>
        <mxCell id="z5m_l2Ay39GD2w98-U8z-41" value="&lt;span style=&quot;color: rgb(0, 0, 0); font-family: Helvetica; font-size: 12px; font-style: normal; font-variant-ligatures: normal; font-variant-caps: normal; font-weight: 400; letter-spacing: normal; orphans: 2; text-align: center; text-indent: 0px; text-transform: none; widows: 2; word-spacing: 0px; -webkit-text-stroke-width: 0px; background-color: rgb(248, 249, 250); text-decoration-thickness: initial; text-decoration-style: initial; text-decoration-color: initial; float: none; display: inline !important;&quot;&gt;1&lt;/span&gt;" style="text;whiteSpace=wrap;html=1;" vertex="1" parent="1">
          <mxGeometry x="990" y="340" width="40" height="40" as="geometry" />
        </mxCell>
        <mxCell id="z5m_l2Ay39GD2w98-U8z-42" value="&lt;span style=&quot;color: rgb(0, 0, 0); font-family: Helvetica; font-size: 12px; font-style: normal; font-variant-ligatures: normal; font-variant-caps: normal; font-weight: 400; letter-spacing: normal; orphans: 2; text-align: center; text-indent: 0px; text-transform: none; widows: 2; word-spacing: 0px; -webkit-text-stroke-width: 0px; background-color: rgb(248, 249, 250); text-decoration-thickness: initial; text-decoration-style: initial; text-decoration-color: initial; float: none; display: inline !important;&quot;&gt;1&lt;/span&gt;" style="text;whiteSpace=wrap;html=1;" vertex="1" parent="1">
          <mxGeometry x="1480" y="340" width="40" height="40" as="geometry" />
        </mxCell>
      </root>
    </mxGraphModel>
  </diagram>
</mxfile>
